# xmcd
#
# Track frame offsets: 
#        150
#        23331
#        46807
#        68880
#        89027
#        110420
#        129139
#        147607
#        164979
#        186796
#        208097
#        227923
#        246480
#        267592
#        291131
#        310881
#
# Disc length: 4422 seconds
#
# Revision: 0
# Processed by: cddbd v1.5.2PL0 Copyright (c) Steve Scherf et al.
# Submitted via: ExactAudioCopyFreeDBPlugin 1.0
#
DISCID=f7114410
DTITLE=群星 - 试机12号
DYEAR=2010
DGENRE=Acid
TTITLE0=往事如惜
TTITLE1=为爱痴狂
TTITLE2=套马轩
TTITLE3=离别前夕
TTITLE4=梦醉西楼
TTITLE5=寻梦园
TTITLE6=三年[潮红]
TTITLE7=借我一点爱
TTITLE8=在那东山顶上
TTITLE9=沉浮
TTITLE10=说句心里话
TTITLE11=某夜
TTITLE12=万泉河水清又清
TTITLE13=黄昏
TTITLE14=糊涂的爱
TTITLE15=你照亮我的心
EXTD=
EXTT0=
EXTT1=
EXTT2=
EXTT3=
EXTT4=
EXTT5=
EXTT6=
EXTT7=
EXTT8=
EXTT9=
EXTT10=
EXTT11=
EXTT12=
EXTT13=
EXTT14=
EXTT15=
PLAYORDER=
